<svg id="Layer_1" data-name="Layer 1" xmlns="http://www.w3.org/2000/svg" xmlns:xlink="http://www.w3.org/1999/xlink" viewBox="0 0 30.91 33.9"><defs><style>.cls-1{fill:none;}.cls-2{clip-path:url(#clip-path);}.cls-3{fill:#7cc734;}.cls-4{fill:#3e7fca;}.cls-5{fill:#eb6e2e;}</style><clipPath id="clip-path" transform="translate(-1.12 -0.06)"><rect class="cls-1" x="-71.89" y="-223.56" width="309.55" height="400.6"/></clipPath></defs><title>logo</title><g id="g4175"><g id="g4177"><g class="cls-2"><g id="g4179"><g id="g4185"><path id="path4187" class="cls-3" d="M21.18,9.55C19.61,5,24.18.2,27.94.06,30.19,1.23,32.12,4.32,32,8.5c-.29,5.16-3.94,9.6-7.91,13.69-.22-5-1.28-8.17-2.93-12.64" transform="translate(-1.12 -0.06)"/></g><g id="g4189"><path id="path4191" class="cls-4" d="M12.32,34A16.51,16.51,0,0,1,15.76,22,23.5,23.5,0,0,0,18,18.63,13.41,13.41,0,0,1,23.54,23C23.31,26.57,20.7,33,12.32,34" transform="translate(-1.12 -0.06)"/></g><g id="g4193"><path id="path4195" class="cls-5" d="M9.16,14.84C2.49,13,.85,7.13,1.15,3.19,7.62.57,14.58,3.25,18.6,8.85A27.85,27.85,0,0,1,23.55,22.2,15.64,15.64,0,0,0,16.06,17c-2.13-.79-4.1-1.31-6.9-2.17" transform="translate(-1.12 -0.06)"/></g></g></g></g></g></svg>